<svg xmlns="http://www.w3.org/2000/svg" width="1600" height="900" viewBox="0 0 1600 900" role="img" aria-label="Abstract background">
  <defs>
    <linearGradient id="g0" x1="0" y1="0" x2="1" y2="1">
      <stop offset="0" stop-color="#2563eb" stop-opacity="0.22"/>
      <stop offset="0.55" stop-color="#22c55e" stop-opacity="0.14"/>
      <stop offset="1" stop-color="#0ea5e9" stop-opacity="0.18"/>
    </linearGradient>
    <radialGradient id="g1" cx="30%" cy="25%" r="60%">
      <stop offset="0" stop-color="#2563eb" stop-opacity="0.22"/>
      <stop offset="1" stop-color="#2563eb" stop-opacity="0"/>
    </radialGradient>
    <radialGradient id="g2" cx="72%" cy="30%" r="62%">
      <stop offset="0" stop-color="#22c55e" stop-opacity="0.18"/>
      <stop offset="1" stop-color="#22c55e" stop-opacity="0"/>
    </radialGradient>
    <radialGradient id="g3" cx="65%" cy="85%" r="70%">
      <stop offset="0" stop-color="#0ea5e9" stop-opacity="0.18"/>
      <stop offset="1" stop-color="#0ea5e9" stop-opacity="0"/>
    </radialGradient>
    <filter id="blur" x="-20%" y="-20%" width="140%" height="140%">
      <feGaussianBlur stdDeviation="18"/>
    </filter>
  </defs>

  <rect width="1600" height="900" fill="url(#g0)"/>
  <g filter="url(#blur)">
    <circle cx="420" cy="240" r="320" fill="url(#g1)"/>
    <circle cx="1180" cy="260" r="360" fill="url(#g2)"/>
    <circle cx="980" cy="780" r="420" fill="url(#g3)"/>
  </g>

  <path d="M0,760 C240,690 420,740 640,700 C890,655 1090,560 1280,600 C1440,632 1520,700 1600,730 L1600,900 L0,900 Z"
        fill="#2563eb" fill-opacity="0.08"/>
  <path d="M0,820 C260,780 470,850 690,820 C940,785 1120,700 1320,730 C1460,752 1540,800 1600,820 L1600,900 L0,900 Z"
        fill="#0ea5e9" fill-opacity="0.06"/>
</svg>

